<?xml version="1.0" encoding="UTF-8" standalone="no"?>
<!-- Created with Inkscape (http://www.inkscape.org/) -->

<svg
   xmlns:dc="http://purl.org/dc/elements/1.1/"
   xmlns:cc="http://creativecommons.org/ns#"
   xmlns:rdf="http://www.w3.org/1999/02/22-rdf-syntax-ns#"
   xmlns:svg="http://www.w3.org/2000/svg"
   xmlns="http://www.w3.org/2000/svg"
   xmlns:sodipodi="http://sodipodi.sourceforge.net/DTD/sodipodi-0.dtd"
   xmlns:inkscape="http://www.inkscape.org/namespaces/inkscape"
   width="106.8686mm"
   height="12.111652mm"
   viewBox="0 0 378.66826 42.915304"
   id="svg5191"
   version="1.1"
   inkscape:version="0.91 r13725"
   sodipodi:docname="lo.svg">
  <defs
     id="defs5193">
    <filter
       style="color-interpolation-filters:sRGB"
       inkscape:label="Cross Blur"
       id="filter5159"
       y="-0.5"
       height="2">
      <feColorMatrix
         in="SourceGraphic"
         values="1 0 0 0 0 0 1 0 0 0 0 0 1 0 0 -0.2125 -0.7154 -0.0721 1 0 "
         result="colormatrix"
         id="feColorMatrix5161" />
      <feComposite
         k1="0"
         in="SourceGraphic"
         in2="colormatrix"
         operator="arithmetic"
         k2="1"
         k3="0"
         k4="0"
         result="composite"
         id="feComposite5163" />
      <feGaussianBlur
         stdDeviation="6 0.01"
         result="blur1"
         id="feGaussianBlur5165" />
      <feGaussianBlur
         in="composite"
         stdDeviation="0.01 6"
         result="blur2"
         id="feGaussianBlur5167" />
      <feBlend
         in="blur2"
         in2="blur1"
         mode="darken"
         result="blend"
         id="feBlend5169" />
    </filter>
  </defs>
  <sodipodi:namedview
     id="base"
     pagecolor="#ffffff"
     bordercolor="#666666"
     borderopacity="1.0"
     inkscape:pageopacity="0.0"
     inkscape:pageshadow="2"
     inkscape:zoom="2.8"
     inkscape:cx="157.71891"
     inkscape:cy="-13.546939"
     inkscape:document-units="px"
     inkscape:current-layer="layer1"
     showgrid="false"
     fit-margin-top="0"
     fit-margin-left="0"
     fit-margin-right="0"
     fit-margin-bottom="0"
     inkscape:window-width="1920"
     inkscape:window-height="1028"
     inkscape:window-x="-8"
     inkscape:window-y="-8"
     inkscape:window-maximized="1" />
  <metadata
     id="metadata5196">
    <rdf:RDF>
      <cc:Work
         rdf:about="">
        <dc:format>image/svg+xml</dc:format>
        <dc:type
           rdf:resource="http://purl.org/dc/dcmitype/StillImage" />
        <dc:title></dc:title>
      </cc:Work>
    </rdf:RDF>
  </metadata>
  <g
     inkscape:label="Layer 1"
     inkscape:groupmode="layer"
     id="layer1"
     transform="translate(-162.09443,-513.76169)">

    <path
       style="font-style:normal;font-variant:normal;font-weight:bold;font-stretch:normal;font-size:22.5px;line-height:125%;font-family:Aharoni;-inkscape-font-specification:'Aharoni Bold';letter-spacing:0px;word-spacing:0px;fill:#b3ff00;fill-opacity:1;stroke:none;stroke-width:1px;stroke-linecap:butt;stroke-linejoin:miter;stroke-opacity:1;filter:url(#filter5159)"
       d="m 196.18454,539.9457 c -3.57887,5.34503 -3.17351,-5.134 0,0 z m 4.96582,0 c -3.57887,5.34503 -3.17351,-5.134 0,0 z m 4.70215,-5.60303 c -3.69097,5.37025 -3.13714,-5.25029 0,0 z m 0,5.64697 c -3.69097,5.37025 -3.13714,-5.25028 0,0 z m 6.24024,-5.64697 c -3.69098,5.37025 -3.13715,-5.25029 0,0 z m 0,5.64697 c -3.69098,5.37025 -3.13715,-5.25028 0,0 z m 29.21264,-9.09668 c -2.19426,3.05096 -5.40136,15.23225 -8.92652,7.60389 -1.3833,-7.07875 -5.69156,9.99038 -8.4045,-1.63008 -6.52714,-6.76051 2.13289,-8.49838 3.30496,-0.78742 1.41058,-8.1811 6.69717,-3.28301 7.85525,-0.52164 1.41221,-3.42455 1.80857,-5.68726 6.17081,-4.66475 z m 11.9751,10.19532 c -5.3946,1.99565 -4.46226,-14.78086 -7.1521,-2.61229 -2.9946,8.21013 -4.67797,-4.53476 -3.60351,-8.77939 -0.0813,-11.7118 4.86895,0.68781 4.75708,1.46004 7.44486,-2.72073 5.85659,5.6727 5.99853,9.93164 z m 13.29346,-4.43848 c -8.52816,-1.25655 -8.06579,3.11796 -0.14282,1.32935 -10.86095,14.00487 -15.36923,-16.12369 -0.65918,-4.95484 l 0.802,3.16406 0,0.46143 z m -3.36182,-2.06543 c -2.68677,-4.61018 -6.91023,1.90723 0,0 z m 13.06275,-0.36255 c -4.42545,-0.5093 -6.42985,14.12612 -7.64649,2.11993 -3.67627,-7.41007 9.93857,-6.58884 7.64649,-2.11993 z m 12.44751,2.42798 c -8.52816,-1.25655 -8.0658,3.11796 -0.14283,1.32935 -10.86095,14.00487 -15.36923,-16.12369 -0.65918,-4.95484 l 0.80201,3.16406 0,0.46143 z m -3.36182,-2.06543 c -2.68678,-4.61018 -6.91024,1.90723 0,0 z m 23.07129,5.80078 c -1.17938,13.12594 -19.1486,-1.70449 -4.83673,2.80975 5.37646,-5.34242 -13.78268,-1.0778 -5.39154,-11.1264 6.66098,-2.89467 12.32895,-1.82746 10.22827,7.36822 l 0,0.94843 z m -3.42774,-4.42749 c -5.69967,-8.51662 -5.15006,8.17974 0,0 z m 17.39136,5.13062 c -6.20826,2.16485 -18.54282,-5.12192 -6.77856,-10.52491 7.47194,-0.16528 7.35887,1.45824 6.77856,10.52491 z m -3.49365,-5.09766 c -6.38687,-9.42817 -5.49417,9.10076 0,0 z m 23.2251,5.09766 c -5.47976,1.84286 -4.38305,-14.60905 -6.82251,-2.19481 -3.12225,9.79599 -4.45741,-12.63348 -6.82251,-1.89861 -0.26248,9.63663 -5.97782,0.0105 -3.60352,-5.39965 4.33725,0.74986 17.73788,-4.38903 17.24854,5.71623 0,1.25895 0,2.51789 0,3.77684 z m 6.30615,-14.11744 c -5.43511,8.19618 -4.81981,-7.88376 0,0 z m -0.23071,14.11744 c -5.57555,2.52448 -5.5973,-12.72602 0,-10.19532 0,3.39844 0,6.79688 0,10.19532 z m 13.22753,0 c -5.38994,1.99969 -4.4618,-14.76063 -7.15209,-2.61229 -2.27073,8.77684 -5.99332,-5.55289 -2.65421,-7.58303 6.57605,0.37383 11.49462,-0.88778 9.8063,10.19532 z m 13.88672,-0.70313 c -1.17938,13.12594 -19.14859,-1.70449 -4.83673,2.80975 5.37647,-5.34242 -13.78267,-1.0778 -5.39154,-11.1264 6.66099,-2.89467 12.32896,-1.82746 10.22827,7.36822 l 0,0.94843 z m -3.42773,-4.42749 c -5.69968,-8.51662 -5.15007,8.17974 0,0 z m 15.96313,-8.98682 c -5.43511,8.19618 -4.81981,-7.88376 0,0 z m -0.23071,14.11744 c -5.57554,2.52448 -5.59729,-12.72602 0,-10.19532 0,3.39844 0,6.79688 0,10.19532 z m 10.7666,-3.43872 c -1.99731,8.98434 -14.83471,-1.27373 -3.60351,0.34057 -11.62617,-1.79955 3.87612,-12.97276 2.0874,-4.47143 -7.80074,-0.39308 2.04117,0.89606 1.51611,4.13086 z m 16.3916,0 c -1.99731,8.98434 -14.83471,-1.27373 -3.60351,0.34057 -11.62616,-1.79955 3.87612,-12.97276 2.0874,-4.47143 -7.80074,-0.39308 2.04117,0.89606 1.51611,4.13086 z m 7.93213,-3.79029 c -2.60916,0.51167 -3.59591,13.92219 -5.65796,3.43178 -0.52286,-3.75988 -2.705,-9.21552 2.84792,-9.46327 -0.11774,4.62598 3.74677,1.09981 2.81004,6.03149 z m 5.17456,-6.88843 c -5.43511,8.19618 -4.81981,-7.88376 0,0 z m -0.23071,14.11744 c -5.57554,2.52448 -5.59729,-12.72602 0,-10.19532 0,3.39844 0,6.79688 0,10.19532 z m 6.07544,0 c -7.0273,1.07959 -2.17003,-9.72538 -3.60352,-14.2396 3.29085,-7.54473 4.53015,5.07156 3.60352,9.12981 0,1.70326 0,3.40652 0,5.10979 z m 6.06445,0 c -7.02729,1.07959 -2.17002,-9.72538 -3.60351,-14.2396 3.29084,-7.54473 4.53014,5.07156 3.60351,9.12981 0,1.70326 0,3.40652 0,5.10979 z m 15.13916,-7.22901 c -3.36958,-0.2726 -3.83555,14.22443 -6.14135,3.43178 -1.64091,-4.52416 -1.55017,-12.17961 6.14135,-12.36366 -0.97338,6.62558 -4.00045,1.65313 0,8.93188 z m 12.20581,3.50464 c -5.73777,15.30591 -17.13263,-9.7581 -7.26196,-5.52164 -0.023,11.54183 3.44425,1.95708 5.55706,-0.94931 3.35406,-0.87552 1.01192,4.58431 1.7049,6.47095 z m 13.20557,3.72437 c -5.38995,1.99969 -4.4618,-14.76063 -7.1521,-2.61229 -2.27073,8.77684 -5.99331,-5.55289 -2.65421,-7.58303 6.57606,0.37383 11.49462,-0.88778 9.80631,10.19532 z m 11.15112,-6.74561 c -3.69097,5.37025 -3.13714,-5.25029 0,0 z m 0,5.64697 c -3.69097,5.37025 -3.13714,-5.25028 0,0 z m 6.24024,-5.64697 c -3.69098,5.37025 -3.13715,-5.25029 0,0 z m 0,5.64697 c -3.69098,5.37025 -3.13715,-5.25028 0,0 z m 6.5039,-0.0439 c -3.57887,5.34503 -3.17351,-5.134 0,0 z m 4.96582,0 c -3.57887,5.34503 -3.17351,-5.134 0,0 z"
       id="text5065-0"
       inkscape:connector-curvature="0" >
       <animate id="fadeout"
                    attributeName="opacity"
                    from="1" to="0.2" dur="4s"
                    begin="0s;fadein.end" />
           <animate id="fadein"
                    attributeName="opacity"
                    from="0.2" to="1" dur="4s"
                    begin="fadeout.end" />
    </path>
    <path
       style="font-style:normal;font-variant:normal;font-weight:bold;font-stretch:normal;font-size:22.5px;line-height:125%;font-family:Aharoni;-inkscape-font-specification:'Aharoni Bold';letter-spacing:0px;word-spacing:0px;fill:#b3ff00;fill-opacity:1;stroke:#000000;stroke-width:1px;stroke-linecap:butt;stroke-linejoin:miter;stroke-opacity:1"
       d="m 196.18455,539.9457 c -3.57887,5.34503 -3.17351,-5.134 0,0 z m 4.96582,0 c -3.57887,5.34503 -3.17351,-5.134 0,0 z m 4.70215,-5.60303 c -3.69097,5.37025 -3.13714,-5.25029 0,0 z m 0,5.64697 c -3.69097,5.37025 -3.13714,-5.25028 0,0 z m 6.24024,-5.64697 c -3.69098,5.37025 -3.13715,-5.25029 0,0 z m 0,5.64697 c -3.69098,5.37025 -3.13715,-5.25028 0,0 z m 29.21263,-9.09668 c -2.19426,3.05096 -5.40135,15.23225 -8.92651,7.60389 -1.3833,-7.07875 -5.69156,9.99038 -8.4045,-1.63008 -6.52714,-6.76051 2.13289,-8.49838 3.30496,-0.78742 1.41058,-8.1811 6.69717,-3.28301 7.85525,-0.52164 1.4122,-3.42455 1.80856,-5.68726 6.1708,-4.66475 z m 11.9751,10.19532 c -5.3946,1.99565 -4.46226,-14.78086 -7.1521,-2.61229 -2.9946,8.21013 -4.67797,-4.53476 -3.60351,-8.77939 -0.0813,-11.7118 4.86895,0.68781 4.75708,1.46004 7.44486,-2.72073 5.85659,5.6727 5.99853,9.93164 z m 13.29346,-4.43848 c -8.52816,-1.25655 -8.06579,3.11796 -0.14282,1.32935 -10.86095,14.00487 -15.36923,-16.12369 -0.65918,-4.95484 l 0.802,3.16406 0,0.46143 z m -3.36182,-2.06543 c -2.68677,-4.61018 -6.91023,1.90723 0,0 z m 13.06275,-0.36255 c -4.42545,-0.5093 -6.42985,14.12612 -7.64649,2.11993 -3.67627,-7.41007 9.93857,-6.58884 7.64649,-2.11993 z m 12.44751,2.42798 c -8.52816,-1.25655 -8.0658,3.11796 -0.14283,1.32935 -10.86095,14.00487 -15.36923,-16.12369 -0.65918,-4.95484 l 0.80201,3.16406 0,0.46143 z m -3.36182,-2.06543 c -2.68678,-4.61018 -6.91024,1.90723 0,0 z m 23.07129,5.80078 c -1.17938,13.12594 -19.1486,-1.70449 -4.83673,2.80975 5.37646,-5.34242 -13.78268,-1.0778 -5.39154,-11.1264 6.66098,-2.89467 12.32895,-1.82746 10.22827,7.36822 l 0,0.94843 z m -3.42774,-4.42749 c -5.69967,-8.51662 -5.15006,8.17974 0,0 z m 17.39136,5.13062 c -6.20826,2.16485 -18.54282,-5.12192 -6.77856,-10.52491 7.47194,-0.16528 7.35887,1.45824 6.77856,10.52491 z m -3.49365,-5.09766 c -6.38687,-9.42817 -5.49417,9.10076 0,0 z m 23.2251,5.09766 c -5.47976,1.84286 -4.38305,-14.60905 -6.82251,-2.19481 -3.12225,9.79599 -4.45741,-12.63348 -6.82251,-1.89861 -0.26248,9.63663 -5.97782,0.0105 -3.60352,-5.39965 4.33725,0.74986 17.73788,-4.38903 17.24854,5.71623 0,1.25895 0,2.51789 0,3.77684 z m 6.30615,-14.11744 c -5.43511,8.19618 -4.81981,-7.88376 0,0 z m -0.23071,14.11744 c -5.57555,2.52448 -5.5973,-12.72602 0,-10.19532 0,3.39844 0,6.79688 0,10.19532 z m 13.22753,0 c -5.38994,1.99969 -4.4618,-14.76063 -7.15209,-2.61229 -2.27073,8.77684 -5.99332,-5.55289 -2.65421,-7.58303 6.57605,0.37383 11.49462,-0.88778 9.8063,10.19532 z m 13.88672,-0.70313 c -1.17938,13.12594 -19.14859,-1.70449 -4.83673,2.80975 5.37647,-5.34242 -13.78267,-1.0778 -5.39154,-11.1264 6.66099,-2.89467 12.32896,-1.82746 10.22827,7.36822 l 0,0.94843 z m -3.42773,-4.42749 c -5.69968,-8.51662 -5.15007,8.17974 0,0 z m 15.96313,-8.98682 c -5.43511,8.19618 -4.81981,-7.88376 0,0 z m -0.23071,14.11744 c -5.57554,2.52448 -5.59729,-12.72602 0,-10.19532 0,3.39844 0,6.79688 0,10.19532 z m 10.7666,-3.43872 c -1.99731,8.98434 -14.83471,-1.27373 -3.60351,0.34057 -11.62617,-1.79955 3.87612,-12.97276 2.0874,-4.47143 -7.80074,-0.39308 2.04117,0.89606 1.51611,4.13086 z m 16.3916,0 c -1.99731,8.98434 -14.83471,-1.27373 -3.60351,0.34057 -11.62616,-1.79955 3.87612,-12.97276 2.0874,-4.47143 -7.80074,-0.39308 2.04117,0.89606 1.51611,4.13086 z m 7.93213,-3.79029 c -2.60916,0.51167 -3.59591,13.92219 -5.65796,3.43178 -0.52286,-3.75988 -2.705,-9.21552 2.84792,-9.46327 -0.11774,4.62598 3.74677,1.09981 2.81004,6.03149 z m 5.17456,-6.88843 c -5.43511,8.19618 -4.81981,-7.88376 0,0 z m -0.23071,14.11744 c -5.57554,2.52448 -5.59729,-12.72602 0,-10.19532 0,3.39844 0,6.79688 0,10.19532 z m 6.07544,0 c -7.0273,1.07959 -2.17003,-9.72538 -3.60352,-14.2396 3.29085,-7.54473 4.53015,5.07156 3.60352,9.12981 0,1.70326 0,3.40652 0,5.10979 z m 6.06445,0 c -7.02729,1.07959 -2.17002,-9.72538 -3.60351,-14.2396 3.29084,-7.54473 4.53014,5.07156 3.60351,9.12981 0,1.70326 0,3.40652 0,5.10979 z m 15.13916,-7.22901 c -3.36958,-0.2726 -3.83555,14.22443 -6.14135,3.43178 -1.64091,-4.52416 -1.55017,-12.17961 6.14135,-12.36366 -0.97338,6.62558 -4.00045,1.65313 0,8.93188 z m 12.20581,3.50464 c -5.73777,15.30591 -17.13263,-9.7581 -7.26196,-5.52164 -0.023,11.54183 3.44425,1.95708 5.55706,-0.94931 3.35406,-0.87552 1.01192,4.58431 1.7049,6.47095 z m 13.20557,3.72437 c -5.38995,1.99969 -4.4618,-14.76063 -7.1521,-2.61229 -2.27073,8.77684 -5.99331,-5.55289 -2.65421,-7.58303 6.57606,0.37383 11.49462,-0.88778 9.80631,10.19532 z m 11.15112,-6.74561 c -3.69097,5.37025 -3.13714,-5.25029 0,0 z m 0,5.64697 c -3.69097,5.37025 -3.13714,-5.25028 0,0 z m 6.24024,-5.64697 c -3.69098,5.37025 -3.13715,-5.25029 0,0 z m 0,5.64697 c -3.69098,5.37025 -3.13715,-5.25028 0,0 z m 6.5039,-0.0439 c -3.57887,5.34503 -3.17351,-5.134 0,0 z m 4.96582,0 c -3.57887,5.34503 -3.17351,-5.134 0,0 z"
       id="text5065"
       inkscape:connector-curvature="0" />
  </g>
</svg>
